<svg width="635" height="635" viewBox="0 0 635 635" fill="none" xmlns="http://www.w3.org/2000/svg">
<g clip-path="url(#clip0_13_19)">
<circle cx="318" cy="318" r="272" fill="#E5E5E5"/>
<g clip-path="url(#clip1_13_19)">
<path d="M634.483 299.214C634.045 291.501 633.326 283.844 632.333 276.256C631.837 272.461 631.273 268.686 630.642 264.926C630.326 263.048 629.994 261.174 629.645 259.304C629.295 257.435 628.929 255.57 628.548 253.711C628.166 251.852 627.768 249.998 627.353 248.147C625.693 240.749 623.772 233.436 621.599 226.218C620.513 222.608 619.362 219.024 618.15 215.463C617.544 213.682 616.922 211.91 616.285 210.143C589.139 134.851 534.031 71.4586 461.526 34.4897C452.358 29.8152 442.919 25.5525 433.216 21.7537C433.214 21.7525 433.209 21.7512 433.205 21.75C397.184 7.63736 359.146 0.324941 320.261 0.0148828C320.243 0.0148828 320.224 0.0148828 320.204 0.0148828C320.186 0.0148828 320.168 0.0136426 320.148 0.0136426C320.111 0.0136426 320.073 0.0136426 320.038 0.0136426H320.035C319.194 0.00124023 318.34 0 317.5 0C269.462 0 223.293 10.4651 180.277 31.1063C161.134 40.2903 142.845 51.461 125.925 64.2987C114.492 72.9593 103.732 82.2982 93.6848 92.2511C90.8807 95.028 88.136 97.8557 85.4447 100.728C85.2661 100.919 85.0912 101.109 84.9126 101.3C63.913 123.82 46.3897 149.195 32.7782 176.781C25.9792 190.557 20.1476 204.881 15.3578 219.686C15.3566 219.689 15.3566 219.691 15.3553 219.695C5.16558 251.181 0 284.088 0 317.5C0 326.183 0.355947 334.842 1.0604 343.458C1.34193 346.905 1.68052 350.344 2.07367 353.774C2.70495 359.279 3.4863 364.76 4.40159 370.214C6.81509 384.59 10.2121 398.773 14.5604 412.651C15.1544 414.547 15.7646 416.438 16.3934 418.324C16.4902 418.613 16.5807 418.903 16.6787 419.192C23.273 438.744 31.7773 457.649 42.1072 475.599C42.1097 475.603 42.1122 475.608 42.1159 475.611C80.2146 541.844 140.79 592.159 212.684 617.288C246.302 629.042 281.565 635 317.5 635C318.257 635 319.002 634.998 319.757 634.986H319.762C319.796 634.986 319.832 634.986 319.864 634.986C322.429 634.967 324.989 634.917 327.545 634.839C327.552 634.839 327.558 634.839 327.567 634.839C330.091 634.761 332.61 634.654 335.125 634.518C335.274 634.509 335.421 634.495 335.57 634.489C337.942 634.356 340.31 634.201 342.673 634.018C343.043 633.989 343.41 633.948 343.781 633.919C345.921 633.744 348.059 633.558 350.193 633.342C350.768 633.284 351.342 633.208 351.918 633.146C353.839 632.939 355.762 632.73 357.677 632.489C358.56 632.377 359.439 632.243 360.32 632.124C361.924 631.907 363.531 631.7 365.131 631.46C366.41 631.268 367.682 631.047 368.956 630.839C370.152 630.644 371.35 630.464 372.543 630.256C374.298 629.95 376.044 629.611 377.792 629.275C378.501 629.139 379.215 629.017 379.923 628.876C382.187 628.424 384.445 627.941 386.699 627.44C386.886 627.399 387.076 627.361 387.263 627.319C404.359 623.484 421.119 618.221 437.457 611.546C442.337 609.554 447.175 607.433 451.961 605.192C466.319 598.466 480.216 590.639 493.431 581.827C568.832 531.556 619.295 451.504 631.883 362.187C633.951 347.447 635 332.414 635 317.5C635 311.403 634.826 305.249 634.483 299.214ZM432.805 51.4449C432.827 51.4548 432.849 51.4623 432.87 51.4734C433.154 51.5987 433.442 51.7314 433.734 51.8592C434.991 52.4098 436.246 52.9667 437.493 53.5335C438.059 53.7914 438.624 54.0593 439.189 54.3198C440.154 54.7675 441.118 55.2128 442.077 55.6704C442.714 55.9743 443.348 56.2856 443.984 56.5956C444.863 57.0235 445.744 57.4501 446.62 57.8867C447.283 58.2178 447.943 58.5552 448.605 58.8913C449.441 59.3167 450.278 59.7421 451.109 60.1749C451.785 60.5272 452.46 60.8843 453.133 61.2415C453.942 61.6707 454.749 62.101 455.554 62.5376C456.233 62.9059 456.909 63.278 457.582 63.6501C458.377 64.0891 459.169 64.5319 459.96 64.9796C460.632 65.3591 461.301 65.7411 461.971 66.1268C462.754 66.5783 463.533 67.0322 464.309 67.4911C464.978 67.8842 465.644 68.2774 466.308 68.6755C467.081 69.1394 467.85 69.6082 468.619 70.0794C469.275 70.4813 469.93 70.8819 470.582 71.2874C471.359 71.7724 472.13 72.2623 472.901 72.7534C473.535 73.1565 474.17 73.5583 474.799 73.9651C475.593 74.4798 476.381 75.0019 477.17 75.5241C477.769 75.9197 478.37 76.3116 478.966 76.7122C479.811 77.2815 480.649 77.8594 481.489 78.4361C482.018 78.8008 482.552 79.1592 483.079 79.5275C484.29 80.3734 485.495 81.2292 486.692 82.0924C487.097 82.385 487.501 82.6815 487.906 82.9754C488.97 83.7518 490.031 84.5294 491.084 85.3194C491.599 85.7064 492.108 86.0995 492.62 86.489C493.427 87.1029 494.235 87.7143 495.036 88.3369C495.594 88.7685 496.145 89.2088 496.698 89.6466C497.443 90.2332 498.189 90.8211 498.928 91.4152C499.502 91.8766 500.069 92.3441 500.639 92.8105C501.349 93.3896 502.059 93.9713 502.764 94.5579C503.338 95.0367 503.908 95.5204 504.479 96.0028C505.172 96.5894 505.863 97.1773 506.551 97.7714C507.118 98.26 507.684 98.7524 508.247 99.2473C508.929 99.8451 509.607 100.444 510.284 101.047C510.841 101.544 511.395 102.043 511.948 102.544C512.624 103.156 513.296 103.774 513.966 104.392C514.508 104.893 515.048 105.395 515.587 105.899C516.26 106.531 516.928 107.167 517.597 107.805C518.12 108.306 518.644 108.806 519.162 109.309C519.842 109.969 520.515 110.634 521.187 111.3C521.685 111.791 522.183 112.282 522.677 112.778C523.38 113.484 524.073 114.196 524.768 114.906C525.221 115.37 525.675 115.83 526.125 116.297C526.892 117.094 527.651 117.9 528.409 118.707C528.776 119.097 529.148 119.484 529.513 119.876C530.556 120.997 531.589 122.126 532.615 123.263C532.689 123.346 532.766 123.427 532.841 123.51C533.948 124.742 535.046 125.982 536.132 127.232C536.411 127.552 536.683 127.878 536.961 128.198C537.757 129.123 538.551 130.048 539.337 130.982C539.708 131.424 540.072 131.872 540.441 132.314C541.124 133.137 541.806 133.961 542.481 134.791C542.879 135.281 543.271 135.776 543.664 136.267C544.299 137.06 544.933 137.853 545.559 138.653C545.965 139.17 546.365 139.691 546.767 140.212C547.374 140.996 547.978 141.782 548.576 142.571C548.979 143.104 549.379 143.64 549.777 144.175C550.365 144.964 550.951 145.754 551.531 146.547C551.925 147.087 552.317 147.63 552.71 148.172C553.286 148.973 553.858 149.774 554.424 150.581C554.806 151.123 555.188 151.667 555.568 152.213C556.138 153.034 556.703 153.86 557.265 154.687C557.628 155.222 557.989 155.752 558.35 156.289C558.923 157.145 559.488 158.005 560.051 158.865C560.39 159.381 560.73 159.896 561.063 160.416C561.651 161.327 562.232 162.244 562.81 163.162C563.106 163.634 563.407 164.103 563.701 164.577C564.338 165.6 564.963 166.629 565.587 167.659C565.815 168.034 566.047 168.408 566.272 168.786C567.09 170.151 567.897 171.523 568.692 172.902C568.718 172.947 568.744 172.99 568.769 173.035C569.612 174.5 570.442 175.971 571.261 177.451C571.324 177.566 571.383 177.681 571.447 177.794C572.178 179.122 572.9 180.454 573.612 181.792C573.819 182.183 574.02 182.576 574.226 182.968C574.787 184.035 575.345 185.104 575.892 186.179C576.14 186.666 576.382 187.156 576.627 187.645C577.123 188.631 577.616 189.618 578.099 190.608C578.36 191.144 578.616 191.681 578.876 192.219C579.335 193.171 579.788 194.125 580.236 195.084C580.5 195.648 580.76 196.216 581.02 196.782C581.45 197.718 581.877 198.656 582.297 199.6C582.557 200.181 582.813 200.763 583.07 201.347C583.482 202.286 583.889 203.226 584.291 204.169C584.54 204.754 584.789 205.342 585.035 205.929C585.433 206.879 585.825 207.832 586.21 208.787C586.447 209.371 586.684 209.956 586.917 210.541C587.306 211.516 587.686 212.493 588.063 213.472C588.283 214.038 588.502 214.606 588.719 215.176C589.106 216.196 589.481 217.218 589.857 218.244C590.053 218.779 590.25 219.311 590.443 219.846C590.841 220.953 591.226 222.061 591.61 223.175C591.768 223.632 591.93 224.087 592.085 224.543C592.538 225.876 592.978 227.217 593.414 228.558C593.491 228.797 593.572 229.034 593.648 229.273C594.165 230.886 594.669 232.503 595.159 234.129C595.17 234.164 595.18 234.198 595.188 234.234C595.656 235.787 596.109 237.346 596.552 238.909C596.68 239.365 596.801 239.824 596.929 240.281C597.246 241.425 597.561 242.569 597.865 243.72C598.016 244.296 598.161 244.877 598.31 245.456C598.577 246.49 598.84 247.522 599.095 248.56C599.251 249.197 599.402 249.835 599.554 250.474C599.789 251.456 600.02 252.44 600.245 253.426C600.399 254.102 600.548 254.78 600.695 255.457C600.905 256.41 601.111 257.365 601.31 258.322C601.455 259.019 601.598 259.719 601.738 260.419C601.928 261.361 602.113 262.305 602.293 263.25C602.429 263.964 602.562 264.677 602.693 265.392C602.864 266.329 603.03 267.267 603.192 268.206C603.316 268.927 603.44 269.651 603.56 270.376C603.715 271.312 603.861 272.249 604.005 273.188C604.118 273.918 604.232 274.649 604.339 275.378C604.477 276.318 604.606 277.259 604.733 278.201C604.834 278.932 604.937 279.663 605.03 280.396C605.154 281.357 605.267 282.322 605.381 283.286C605.465 283.999 605.554 284.713 605.634 285.428C605.647 285.549 605.659 285.671 605.671 285.792C586.062 283.046 568.096 271.451 554.575 252.663C539.037 231.072 531.273 202.823 532.707 173.103L532.735 172.636C534.287 142.804 517.009 115.157 489.739 103.839C439.591 83.0473 429.158 67.3125 429.373 63.0014C429.569 59.0674 430.716 55.2004 432.805 51.4449ZM44.8828 218.698C45.8465 216.034 46.8499 213.39 47.8879 210.762C48.0789 210.278 48.2712 209.796 48.4646 209.313C49.5226 206.676 50.6127 204.057 51.7451 201.459C51.9038 201.094 52.0675 200.733 52.2287 200.369C53.4095 197.687 54.6224 195.023 55.8812 192.385C55.9073 192.331 55.9321 192.274 55.9581 192.218C57.2281 189.561 58.5477 186.933 59.8971 184.321C60.0956 183.938 60.2903 183.552 60.4887 183.17C61.7897 180.68 63.1292 178.212 64.4996 175.762C64.7539 175.308 65.0094 174.856 65.2661 174.404C66.6502 171.963 68.0653 169.543 69.5201 167.144C69.7421 166.777 69.9703 166.415 70.1935 166.049C71.7277 163.545 73.2904 161.057 74.899 158.601C74.9151 158.575 74.9337 158.55 74.9511 158.524C76.5522 156.082 78.2005 153.674 79.8761 151.281C80.1179 150.937 80.3548 150.589 80.5979 150.246C82.2127 147.962 83.8671 145.704 85.5476 143.468C85.8689 143.04 86.1913 142.613 86.515 142.188C88.1993 139.974 89.9133 137.78 91.6645 135.615C91.9609 135.248 92.2623 134.884 92.5599 134.518C94.3893 132.275 96.2447 130.052 98.1422 127.863C98.2377 127.753 98.3369 127.645 98.4324 127.535C100.295 125.394 102.197 123.282 104.124 121.193C104.407 120.887 104.684 120.578 104.968 120.273C106.876 118.224 108.819 116.206 110.79 114.208C111.183 113.809 111.575 113.412 111.971 113.016C113.933 111.051 115.923 109.108 117.945 107.193C118.317 106.84 118.695 106.493 119.071 106.141C121.172 104.172 123.298 102.225 125.462 100.314C125.637 100.16 125.817 100.009 125.992 99.855C128.109 97.9959 130.258 96.1665 132.436 94.362C132.643 94.1896 132.849 94.016 133.057 93.8448C134.109 95.064 135.137 96.3154 136.138 97.594C155.71 122.606 161.498 158.859 155.7 170.159C154.836 171.843 154.496 171.885 153.016 171.828C153.014 171.828 153.011 171.828 153.008 171.827C126.06 170.764 101.89 186.934 80.5954 201.233C69.4754 208.698 58.9756 215.75 50.7975 218.309C48.1719 219.13 46.2533 219.402 44.7005 219.185C44.7675 219.028 44.8246 218.863 44.8828 218.698ZM421.579 575.031C421.579 575.035 421.578 575.04 421.578 575.043C421.186 579.63 420.642 584.217 419.951 588.757C418.095 589.457 416.236 590.144 414.37 590.807C413.907 590.972 413.442 591.127 412.978 591.288C411.447 591.823 409.911 592.348 408.372 592.856C407.653 593.092 406.932 593.322 406.212 593.554C404.902 593.974 403.588 594.389 402.272 594.79C401.51 595.024 400.745 595.254 399.979 595.481C398.651 595.874 397.32 596.258 395.988 596.631C395.271 596.833 394.556 597.038 393.838 597.234C392.198 597.681 390.554 598.11 388.906 598.527C388.508 598.628 388.113 598.737 387.715 598.836C385.692 599.34 383.663 599.817 381.63 600.277C380.986 600.422 380.341 600.556 379.698 600.696C378.276 601.006 376.853 601.31 375.426 601.601C374.646 601.758 373.866 601.909 373.085 602.061C371.763 602.317 370.438 602.564 369.114 602.804C368.324 602.946 367.535 603.086 366.745 603.221C365.338 603.462 363.928 603.688 362.519 603.907C361.835 604.014 361.151 604.127 360.465 604.227C358.397 604.534 356.323 604.824 354.246 605.086C353.99 605.118 353.735 605.144 353.479 605.174C351.635 605.402 349.787 605.611 347.935 605.805C347.211 605.881 346.484 605.946 345.759 606.014C344.357 606.15 342.955 606.279 341.549 606.393C340.748 606.457 339.948 606.518 339.146 606.578C337.773 606.678 336.397 606.769 335.02 606.85C334.247 606.896 333.473 606.943 332.699 606.983C332.344 607 331.988 607.012 331.634 607.029C330.221 594.361 330.083 580.813 331.253 567.231C333.733 538.511 341.64 512.213 353.518 493.177C363.033 477.929 373.972 469.342 383.779 469.342C384.256 469.342 384.729 469.363 385.199 469.403C395.352 470.278 405.243 480.795 412.333 498.259C420.776 519.055 424.06 546.32 421.579 575.031ZM472.538 562.476C472.456 562.527 472.378 562.581 472.296 562.634C471.669 563.032 471.03 563.414 470.4 563.807C469.084 564.624 467.769 565.44 466.441 566.238C465.667 566.702 464.886 567.154 464.106 567.611C462.905 568.316 461.703 569.018 460.493 569.707C459.664 570.178 458.831 570.638 457.999 571.101C456.818 571.757 455.635 572.405 454.445 573.044C453.6 573.498 452.75 573.948 451.898 574.396C451.004 574.865 450.105 575.322 449.207 575.781C451.786 543.388 447.802 512.228 437.916 487.878C426.617 460.051 408.738 443.724 387.574 441.9C366.415 440.069 345.993 453.089 330.095 478.567C315.952 501.231 306.596 531.877 303.746 564.865C302.514 579.163 302.599 593.479 303.912 607.07C302.726 607.014 301.542 606.953 300.359 606.885C299.706 606.848 299.053 606.811 298.402 606.769C296.973 606.676 295.545 606.57 294.119 606.455C293.67 606.42 293.222 606.39 292.773 606.352C290.913 606.196 289.054 606.021 287.199 605.828C286.733 605.78 286.27 605.723 285.805 605.673C284.404 605.522 283.007 605.361 281.609 605.188C280.954 605.107 280.3 605.021 279.647 604.935C278.421 604.776 277.196 604.608 275.972 604.433C275.296 604.336 274.62 604.238 273.944 604.138C272.673 603.946 271.403 603.744 270.134 603.535C269.549 603.44 268.963 603.348 268.379 603.248C266.547 602.934 264.717 602.609 262.892 602.26C262.781 602.239 262.672 602.216 262.56 602.195C260.841 601.866 259.127 601.519 257.416 601.158C256.814 601.031 256.214 600.897 255.612 600.766C254.377 600.498 253.143 600.224 251.911 599.937C251.242 599.782 250.572 599.624 249.902 599.464C248.705 599.178 247.51 598.883 246.316 598.582C245.678 598.421 245.041 598.262 244.403 598.096C243.018 597.736 241.634 597.363 240.252 596.982C239.833 596.865 239.411 596.756 238.992 596.638C238.914 596.616 238.834 596.591 238.756 596.569C287.92 519.988 309.288 465.198 323.731 428.171C341.645 382.243 346.079 374.87 367.496 374.87C394.56 374.87 420.436 391.77 440.354 422.457C461.47 454.987 473.1 498.511 473.1 545.009C473.102 550.828 472.913 556.678 472.538 562.476ZM500.665 542.17C500.19 491.457 487.061 443.699 463.515 407.427C438.331 368.63 404.232 347.262 367.498 347.262C325.653 347.262 315.248 373.941 298.011 418.14C283.616 455.051 262.121 510.133 211.746 587.487C165.613 569.411 125.031 539.812 93.7022 501.772C95.7783 502.562 97.8632 503.343 99.9641 504.104C119.136 511.068 135.208 514.539 148.776 514.539C160.16 514.539 169.783 512.094 177.982 507.22C204.296 491.578 209.809 455.026 216.788 408.749C223.289 365.641 231.381 311.99 257.759 255.716C264.869 240.546 269.917 224.909 272.755 209.242C274.113 201.74 269.136 194.557 261.632 193.198C254.134 191.839 246.949 196.819 245.587 204.32C243.174 217.636 238.858 230.987 232.759 243.999C204.677 303.906 196.255 359.755 189.485 404.631C183.596 443.683 178.943 474.529 163.871 483.487C153.713 489.527 135.888 487.78 109.384 478.153C93.4132 472.353 78.2129 465.722 64.1424 458.417C63.6674 457.566 63.1924 456.716 62.7273 455.861C62.0229 454.567 61.3234 453.272 60.6413 451.97C59.8798 450.515 59.1369 449.05 58.3989 447.584C57.7428 446.28 57.0892 444.974 56.4542 443.66C55.7361 442.175 55.0404 440.681 54.3495 439.184C53.7394 437.865 53.1292 436.546 52.54 435.219C51.8678 433.704 51.2192 432.18 50.573 430.653C50.0112 429.326 49.4469 428.001 48.9049 426.664C48.2786 425.121 47.6783 423.566 47.0781 422.012C46.5621 420.673 46.04 419.337 45.5439 417.99C44.9659 416.42 44.4153 414.841 43.8621 413.262C43.3933 411.918 42.9171 410.575 42.4669 409.222C41.9336 407.623 41.4325 406.013 40.929 404.404C40.5061 403.054 40.0745 401.708 39.6714 400.353C39.1877 398.729 38.7387 397.095 38.2836 395.464C37.9065 394.108 37.5183 392.756 37.1611 391.396C36.7283 389.746 36.3289 388.087 35.9246 386.428C35.5935 385.073 35.2499 383.719 34.9386 382.358C34.5554 380.684 34.2094 378.999 33.8559 377.318C33.5707 375.961 33.2705 374.607 33.0051 373.244C32.6727 371.54 32.38 369.828 32.0774 368.119C31.8381 366.768 31.5838 365.423 31.3643 364.07C31.0815 362.325 30.8409 360.572 30.5904 358.821C30.3994 357.493 30.1898 356.169 30.0174 354.837C29.7855 353.044 29.5982 351.244 29.3985 349.447C29.2546 348.15 29.0909 346.854 28.9632 345.553C28.7809 343.68 28.6482 341.8 28.5018 339.921C28.4063 338.689 28.2885 337.463 28.2079 336.23C28.0739 334.153 27.9908 332.068 27.9016 329.987C27.8569 328.95 27.7875 327.914 27.7527 326.876C27.656 323.754 27.6039 320.628 27.6039 317.498C27.6039 293.106 30.6239 269.017 36.5807 245.657C39.3452 246.416 42.3565 246.856 45.6381 246.856C49.6937 246.856 54.1536 246.194 59.0488 244.661C71.0443 240.904 83.1614 232.77 95.9879 224.157C113.769 212.22 133.938 198.687 151.88 199.416C164.236 199.923 174.574 193.857 180.267 182.765C193.701 156.573 179.254 107.894 157.883 80.583C157.006 79.4618 156.101 78.3717 155.193 77.2852C155.413 77.1364 155.633 76.9875 155.853 76.8387C157.034 76.0437 158.218 75.2549 159.409 74.4786C160.168 73.9825 160.932 73.4913 161.694 73.0039C162.879 72.2474 164.072 71.4995 165.267 70.7603C166.028 70.289 166.787 69.819 167.552 69.3564C168.812 68.5924 170.081 67.8445 171.352 67.1004C172.053 66.6899 172.752 66.2732 173.455 65.8689C175 64.9821 176.555 64.1152 178.115 63.2582C178.553 63.0176 178.986 62.7683 179.423 62.5301C181.33 61.4945 183.248 60.4875 185.176 59.4965C209.66 77.0161 228.622 101.542 238.98 129.282C241.646 136.425 249.602 140.052 256.74 137.386C263.882 134.719 267.51 126.767 264.843 119.626C254.387 91.6211 236.536 66.4294 213.594 46.7742C237.263 37.661 261.859 31.7822 287.145 29.1765C279.915 40.7727 276.082 53.278 276.082 66.0214C276.082 95.3877 310.51 122.003 381.33 147.386C405.841 156.181 422.254 179.913 422.175 206.48V207.06C422.175 254.417 436.969 299.069 463.832 332.792C491.429 367.437 528.398 386.515 567.934 386.515C578.883 386.515 589.647 385.048 600.139 382.142C585.815 444.932 550.726 501.321 500.665 542.17ZM607.282 325.031C607.27 325.524 607.258 326.02 607.244 326.515C607.169 328.947 607.065 331.378 606.93 333.81C606.905 334.256 606.874 334.702 606.848 335.149C606.704 337.522 606.539 339.896 606.338 342.266C606.323 342.452 606.311 342.641 606.294 342.828C606.08 345.31 605.826 347.787 605.549 350.26C605.52 350.525 605.489 350.792 605.459 351.056C593.403 356.277 580.812 358.919 567.936 358.919C502.787 358.919 449.785 290.8 449.785 207.071V206.533C449.9 168.347 426.14 134.14 390.654 121.404C326.469 98.399 303.695 77.1959 303.695 66.0276C303.695 49.5213 314.439 36.4604 324.776 27.7168C325.103 27.7254 325.429 27.7267 325.754 27.7366C326.71 27.7639 327.666 27.8011 328.622 27.8371C329.834 27.8829 331.046 27.9276 332.256 27.9884C333.226 28.0367 334.196 28.0963 335.163 28.1546C336.353 28.2253 337.543 28.2984 338.73 28.3852C339.714 28.4559 340.694 28.5353 341.675 28.6159C342.845 28.7127 344.016 28.8119 345.185 28.9223C346.172 29.0153 347.158 29.1157 348.142 29.2187C349.302 29.3402 350.459 29.4667 351.615 29.6019C352.605 29.716 353.595 29.8388 354.583 29.9653C355.73 30.1117 356.876 30.2654 358.02 30.4254C359.011 30.5631 360.002 30.707 360.99 30.8546C362.129 31.0257 363.265 31.2055 364.401 31.3903C365.388 31.5503 366.375 31.7128 367.36 31.8839C368.493 32.0799 369.626 32.287 370.756 32.4966C371.738 32.6789 372.723 32.8625 373.702 33.0547C374.83 33.2767 375.955 33.5087 377.08 33.7455C378.058 33.9502 379.037 34.1536 380.013 34.3681C381.14 34.6162 382.264 34.8779 383.387 35.1383C384.352 35.3616 385.319 35.5836 386.281 35.8192C387.416 36.0958 388.546 36.386 389.678 36.6762C390.627 36.9193 391.574 37.1574 392.521 37.4104C393.664 37.7168 394.803 38.038 395.941 38.3592C396.869 38.6184 397.799 38.8739 398.724 39.1443C399.891 39.4853 401.053 39.8425 402.215 40.1985C403.106 40.4701 403.998 40.7343 404.886 41.0158C405.541 41.2229 406.19 41.4449 406.843 41.6558C403.848 48.0591 402.124 54.7886 401.786 61.6545C400.63 85.1446 425.94 107.288 479.153 129.347C495.651 136.195 506.101 153.016 505.164 171.082L505.136 171.522C505.134 171.579 505.129 171.635 505.126 171.692C503.371 207.651 512.973 242.136 532.156 268.796C551.409 295.55 578.022 311.427 607.332 313.745C607.346 315 607.385 316.254 607.385 317.506C607.39 320.01 607.348 322.519 607.282 325.031Z" fill="#EC4600"/>
<path d="M274.056 161.224C271.643 153.992 263.83 150.081 256.594 152.493C250.421 154.552 246.67 160.548 247.201 166.757C247.688 172.875 252.241 178.13 258.565 179.247C259.376 179.391 260.185 179.459 260.981 179.459C267.553 179.459 273.377 174.748 274.559 168.052C274.957 165.788 274.781 163.402 274.056 161.224Z" fill="#EC4600"/>
<path d="M151.537 297.927C141.031 279.307 126.188 269.054 109.745 269.054C93.3004 269.054 78.4585 279.308 67.9525 297.927C58.8504 314.055 53.8374 335.2 53.8374 357.467C53.8374 379.734 58.8504 400.879 67.9525 417.008C78.4585 435.628 93.3017 445.881 109.745 445.881C126.189 445.881 141.031 435.626 151.537 417.008C160.639 400.879 165.652 379.735 165.652 357.467C165.652 335.2 160.64 314.055 151.537 297.927ZM109.745 418.272C96.3861 418.272 81.4463 392.267 81.4463 357.467C81.4463 322.667 96.3874 296.663 109.745 296.663C123.103 296.663 138.043 322.666 138.043 357.467C138.043 392.268 123.103 418.272 109.745 418.272Z" fill="#EC4600"/>
</g>
</g>
<defs>
<clipPath id="clip0_13_19">
<rect width="635" height="635" fill="white"/>
</clipPath>
<clipPath id="clip1_13_19">
<rect width="635" height="635" fill="white"/>
</clipPath>
</defs>
</svg>
